<svg xmlns="http://www.w3.org/2000/svg" xmlns:xlink="http://www.w3.org/1999/xlink" width="55.5" height="16.88" viewBox="0 0 55.5 16.88">
  <defs>
    <clipPath id="clip-path">
      <rect id="Retângulo_215" data-name="Retângulo 215" width="55.5" height="16.88" fill="#d1d1d1"/>
    </clipPath>
  </defs>
  <g id="Grupo_304" data-name="Grupo 304" transform="translate(0 0)">
    <g id="Grupo_303" data-name="Grupo 303" transform="translate(0 0)" clip-path="url(#clip-path)">
      <path id="Caminho_450" data-name="Caminho 450" d="M54.973,6.989a1.733,1.733,0,0,1-2.451,2.451l-2.007-2-2,2A1.733,1.733,0,1,1,46.03,7.02l.031-.031,2-2-2-2A1.734,1.734,0,0,1,48.47.486l.042.045,2,2,2.007-2a1.732,1.732,0,1,1,2.492,2.406l-.042.045-2.007,2Zm-1.227,6.426H47.285a1.733,1.733,0,1,0,0,3.466h6.461a1.733,1.733,0,1,0,0-3.466M39.794.528a1.734,1.734,0,0,0-2.451,0L35.337,2.535l-2-2.007a1.733,1.733,0,0,0-2.451,2.451l2,2.007-2,2a1.733,1.733,0,0,0,2.451,2.451l2-2,2.007,2A1.733,1.733,0,1,0,39.826,7.02l-.031-.031-2.007-2,2.007-2a1.738,1.738,0,0,0,0-2.454M38.567,13.415H32.11a1.733,1.733,0,1,0,0,3.466h6.457a1.733,1.733,0,1,0,0-3.466M24.616.528a1.734,1.734,0,0,0-2.451,0l-2,2.007-2-2.007a1.734,1.734,0,0,0-2.5,2.409l.045.042,2,2.007-2,2a1.733,1.733,0,0,0,2.451,2.451l2-2,2,2a1.733,1.733,0,0,0,2.451-2.451l-2-2,2-2a1.732,1.732,0,0,0,0-2.454M23.393,13.415H16.932a1.733,1.733,0,0,0,0,3.466h6.461a1.733,1.733,0,1,0,0-3.466M9.441.528a1.738,1.738,0,0,0-2.454,0l-2,2.007L2.98.528a1.734,1.734,0,0,0-2.5,2.409l.045.042,2,2.007-2,2A1.733,1.733,0,0,0,2.98,9.439l2-2,2.007,2A1.733,1.733,0,0,0,9.441,6.989l-2.007-2,2.007-2A1.738,1.738,0,0,0,9.441.528ZM8.214,13.415H1.753a1.733,1.733,0,0,0,0,3.466H8.214a1.733,1.733,0,0,0,0-3.466" transform="translate(0 -0.002)" fill="#d1d1d1"/>
    </g>
  </g>
</svg>
