<svg id="Grupo_631" data-name="Grupo 631" xmlns="http://www.w3.org/2000/svg" xmlns:xlink="http://www.w3.org/1999/xlink" width="262.786" height="36.377" viewBox="0 0 262.786 36.377">
  <defs>
    <clipPath id="clip-path">
      <rect id="Retângulo_359" data-name="Retângulo 359" width="262.786" height="36.377" fill="none"/>
    </clipPath>
  </defs>
  <g id="Grupo_630" data-name="Grupo 630" clip-path="url(#clip-path)">
    <path id="Caminho_747" data-name="Caminho 747" d="M20.564,39.705A20.564,20.564,0,0,1,6.017,4.594L8.988,7.566A16.371,16.371,0,0,0,32.14,30.718l2.972,2.971a20.509,20.509,0,0,1-14.547,6.016" transform="translate(-0.001 -3.767)" fill="#fff5c0"/>
    <path id="Caminho_748" data-name="Caminho 748" d="M46.473,31.511a15.168,15.168,0,0,1,0-30.337v4.2a10.966,10.966,0,1,0,0,21.932Z" transform="translate(-25.672 -0.963)" fill="#fff5c0"/>
    <path id="Caminho_749" data-name="Caminho 749" d="M218.674,19.717a1.145,1.145,0,0,1-.86-.354,1.206,1.206,0,0,1-.342-.872V2.535a1.186,1.186,0,0,1,.354-.872,1.157,1.157,0,0,1,.848-.354A1.208,1.208,0,0,1,219.9,2.535V17.266h8.532a1.226,1.226,0,1,1,0,2.451Z" transform="translate(-178.338 -1.073)" fill="#fff5c0"/>
    <path id="Caminho_750" data-name="Caminho 750" d="M303.3,44.516a7.089,7.089,0,0,1-3.476-.837,6.116,6.116,0,0,1-2.381-2.31,6.58,6.58,0,0,1-.86-3.382,6.935,6.935,0,0,1,.813-3.406,5.949,5.949,0,0,1,2.251-2.31,6.44,6.44,0,0,1,3.3-.837,5.9,5.9,0,0,1,3.159.813,5.3,5.3,0,0,1,2.015,2.239,7.419,7.419,0,0,1,.7,3.288.987.987,0,0,1-.306.742,1.075,1.075,0,0,1-.778.295h-9.5V36.926h9.428l-.966.66a5.049,5.049,0,0,0-.471-2.109,3.436,3.436,0,0,0-3.276-2.015,4.293,4.293,0,0,0-2.3.589,3.8,3.8,0,0,0-1.45,1.615,5.273,5.273,0,0,0-.5,2.322,4.509,4.509,0,0,0,.589,2.31,4.3,4.3,0,0,0,1.626,1.6,4.732,4.732,0,0,0,2.381.589,4.468,4.468,0,0,0,1.5-.271,4.641,4.641,0,0,0,1.237-.625,1.341,1.341,0,0,1,.766-.271,1.031,1.031,0,0,1,.719.247,1.117,1.117,0,0,1,.424.778.837.837,0,0,1-.377.731,6.519,6.519,0,0,1-1.991,1.037,7.116,7.116,0,0,1-2.275.4" transform="translate(-243.213 -25.778)" fill="#fff5c0"/>
    <path id="Caminho_751" data-name="Caminho 751" d="M381.336,44.515a5.735,5.735,0,0,1-5.256-3.146,7.134,7.134,0,0,1-.778-3.382,6.774,6.774,0,0,1,.837-3.406,6.066,6.066,0,0,1,2.3-2.31,7.16,7.16,0,0,1,6.717,0,6.071,6.071,0,0,1,2.3,2.31,6.778,6.778,0,0,1,.837,3.406H386.9a7.62,7.62,0,0,1-.719,3.382,5.741,5.741,0,0,1-1.968,2.31,5.047,5.047,0,0,1-2.875.837m.424,5.256a7.532,7.532,0,0,1-3.135-.66,6.588,6.588,0,0,1-2.475-1.933,1,1,0,0,1-.224-.825,1.05,1.05,0,0,1,.46-.684,1.132,1.132,0,0,1,.884-.189,1.2,1.2,0,0,1,.742.471,4.345,4.345,0,0,0,1.6,1.249,5.158,5.158,0,0,0,2.192.448,4.153,4.153,0,0,0,2.086-.542,3.9,3.9,0,0,0,1.52-1.6,5.449,5.449,0,0,0,.566-2.593V39.565l.778-2.074,1.532.5v5.091a6.978,6.978,0,0,1-.825,3.382,6.3,6.3,0,0,1-2.3,2.416,6.427,6.427,0,0,1-3.406.9m.047-7.377a4.133,4.133,0,0,0,2.168-.566,3.956,3.956,0,0,0,1.473-1.556,4.767,4.767,0,0,0,.531-2.286,4.838,4.838,0,0,0-.531-2.3,3.936,3.936,0,0,0-1.473-1.567,4.441,4.441,0,0,0-4.337,0,4.017,4.017,0,0,0-1.485,1.567,4.75,4.75,0,0,0-.542,2.3,4.68,4.68,0,0,0,.542,2.286,4.04,4.04,0,0,0,1.485,1.556,4.131,4.131,0,0,0,2.168.566" transform="translate(-307.766 -25.777)" fill="#fff5c0"/>
    <path id="Caminho_752" data-name="Caminho 752" d="M469.745,44.515a5.671,5.671,0,0,1-3.088-.86,6.108,6.108,0,0,1-2.157-2.333,6.946,6.946,0,0,1-.789-3.335,6.551,6.551,0,0,1,.86-3.347,6.365,6.365,0,0,1,2.333-2.345,6.5,6.5,0,0,1,8.933,2.345,6.554,6.554,0,0,1,.861,3.347h-.919a6.952,6.952,0,0,1-.789,3.335,6.117,6.117,0,0,1-2.157,2.333,5.673,5.673,0,0,1-3.088.86m.471-2.121a4.021,4.021,0,0,0,2.145-.577,4.106,4.106,0,0,0,1.485-1.579,4.652,4.652,0,0,0,.542-2.251,4.7,4.7,0,0,0-.542-2.274,4.114,4.114,0,0,0-1.485-1.579,4.251,4.251,0,0,0-4.278,0,4.166,4.166,0,0,0-1.509,1.579,4.619,4.619,0,0,0-.554,2.274,4.569,4.569,0,0,0,.554,2.251,4.158,4.158,0,0,0,1.509,1.579,4.037,4.037,0,0,0,2.133.577m5.28,2.051a1.169,1.169,0,0,1-1.2-1.2V39.636l.448-2.5,1.957.849v5.256a1.169,1.169,0,0,1-1.2,1.2" transform="translate(-380.265 -25.777)" fill="#fff5c0"/>
    <path id="Caminho_753" data-name="Caminho 753" d="M556.7,19.717a3.107,3.107,0,0,1-1.839-.566,3.749,3.749,0,0,1-1.249-1.544,5.351,5.351,0,0,1-.448-2.251V2.488a1.179,1.179,0,1,1,2.357,0V15.356a2.821,2.821,0,0,0,.33,1.438.971.971,0,0,0,.849.566h.589a.98.98,0,0,1,.766.33,1.227,1.227,0,0,1,.294.848,1.011,1.011,0,0,1-.448.848,1.9,1.9,0,0,1-1.155.33Z" transform="translate(-453.625 -1.073)" fill="#fff5c0"/>
    <path id="Caminho_754" data-name="Caminho 754" d="M639.148,18.879a8.884,8.884,0,0,1-6.47-2.722,9.308,9.308,0,0,1-1.933-3.005,9.84,9.84,0,0,1-.7-3.724,9.689,9.689,0,0,1,.7-3.689,9.346,9.346,0,0,1,1.933-2.993A9.072,9.072,0,0,1,635.565.731,8.749,8.749,0,0,1,639.148,0a9.237,9.237,0,0,1,3.123.471A9,9,0,0,1,644.9,2.027a1.309,1.309,0,0,1,.295.295.9.9,0,0,1,.142.306,1.653,1.653,0,0,1,.035.365.969.969,0,0,1-.318.742,1.225,1.225,0,0,1-1.638.035,7.005,7.005,0,0,0-1.8-1.155,6.326,6.326,0,0,0-2.463-.4,6.166,6.166,0,0,0-2.616.566,6.91,6.91,0,0,0-2.156,1.556,7.167,7.167,0,0,0-1.45,2.3,7.5,7.5,0,0,0-.519,2.793,7.569,7.569,0,0,0,.519,2.817,7.168,7.168,0,0,0,1.45,2.3,6.743,6.743,0,0,0,2.156,1.544,6.465,6.465,0,0,0,4.891.142,8.777,8.777,0,0,0,2.062-1.143,1.239,1.239,0,0,1,.837-.271,1.059,1.059,0,0,1,.7.33,1.126,1.126,0,0,1,.283.813,1.177,1.177,0,0,1-.094.459,1.288,1.288,0,0,1-.283.413,9.477,9.477,0,0,1-2.722,1.532,9,9,0,0,1-3.052.518" transform="translate(-516.671)" fill="#fff5c0"/>
    <path id="Caminho_755" data-name="Caminho 755" d="M732.825,44.515a6.662,6.662,0,0,1-3.37-.837,6.06,6.06,0,0,1-2.3-2.31,7.3,7.3,0,0,1,0-6.788,6.066,6.066,0,0,1,2.3-2.31,7.16,7.16,0,0,1,6.717,0,6.07,6.07,0,0,1,2.3,2.31,7.346,7.346,0,0,1,.012,6.788,5.981,5.981,0,0,1-2.286,2.31,6.663,6.663,0,0,1-3.37.837m0-2.121a4.132,4.132,0,0,0,2.168-.566,3.956,3.956,0,0,0,1.473-1.556A4.766,4.766,0,0,0,737,37.986a4.838,4.838,0,0,0-.531-2.3,3.935,3.935,0,0,0-1.473-1.567,4.441,4.441,0,0,0-4.337,0,4.016,4.016,0,0,0-1.485,1.567,4.751,4.751,0,0,0-.542,2.3,4.681,4.681,0,0,0,.542,2.286,4.039,4.039,0,0,0,1.485,1.556,4.131,4.131,0,0,0,2.168.566" transform="translate(-595.617 -25.777)" fill="#fff5c0"/>
    <path id="Caminho_756" data-name="Caminho 756" d="M819.6,44.337a1.169,1.169,0,0,1-1.2-1.2V32.623a1.156,1.156,0,0,1,.342-.872,1.2,1.2,0,0,1,2.062.872V43.135a1.189,1.189,0,0,1-.33.86,1.157,1.157,0,0,1-.872.342m9.687,0a1.169,1.169,0,0,1-1.2-1.2v-5.8a4.311,4.311,0,0,0-.5-2.192,3.119,3.119,0,0,0-1.332-1.261,4.3,4.3,0,0,0-1.921-.412,3.953,3.953,0,0,0-1.791.4,3.348,3.348,0,0,0-1.273,1.073,2.619,2.619,0,0,0-.472,1.544h-1.485a4.951,4.951,0,0,1,.719-2.652A5.19,5.19,0,0,1,822,31.986a5.748,5.748,0,0,1,2.8-.683,6.018,6.018,0,0,1,2.911.7,5.019,5.019,0,0,1,2.027,2.039,6.741,6.741,0,0,1,.742,3.3v5.8a1.168,1.168,0,0,1-1.2,1.2" transform="translate(-671.124 -25.67)" fill="#fff5c0"/>
    <path id="Caminho_757" data-name="Caminho 757" d="M899.662,15.766a1.135,1.135,0,0,1-.8-.283.922.922,0,0,1-.306-.707.977.977,0,0,1,.306-.754,1.135,1.135,0,0,1,.8-.283h5.445a1.134,1.134,0,0,1,.8.283.978.978,0,0,1,.307.754.922.922,0,0,1-.307.707,1.135,1.135,0,0,1-.8.283Zm5.232,10.394a3.861,3.861,0,0,1-2.121-.6,4.214,4.214,0,0,1-1.485-1.638,4.956,4.956,0,0,1-.542-2.333V10.346a1.179,1.179,0,1,1,2.357,0V21.588a2.418,2.418,0,0,0,.519,1.579,1.583,1.583,0,0,0,1.273.636h.8a.929.929,0,0,1,.719.33,1.228,1.228,0,0,1,.295.848,1.062,1.062,0,0,1-.389.848,1.494,1.494,0,0,1-1,.33Z" transform="translate(-736.858 -7.517)" fill="#fff5c0"/>
    <path id="Caminho_758" data-name="Caminho 758" d="M961.422,44.206a1.206,1.206,0,0,1-.872-.295,1.171,1.171,0,0,1-.307-.884V32.492a1.068,1.068,0,0,1,1.179-1.179,1.042,1.042,0,0,1,1.178,1.179V43.027a1.207,1.207,0,0,1-.295.872,1.171,1.171,0,0,1-.884.306m-.024-8.061a4.7,4.7,0,0,1,.7-2.534,5.1,5.1,0,0,1,1.874-1.78,5.22,5.22,0,0,1,2.593-.66,3.872,3.872,0,0,1,2.109.46.972.972,0,0,1,.531,1.1.906.906,0,0,1-.271.507.937.937,0,0,1-.46.224,1.387,1.387,0,0,1-.566-.024,6.615,6.615,0,0,0-2.71-.047,3.671,3.671,0,0,0-1.9.966,2.449,2.449,0,0,0-.7,1.791Z" transform="translate(-787.445 -25.563)" fill="#fff5c0"/>
    <path id="Caminho_759" data-name="Caminho 759" d="M1021.5,44.515a6.661,6.661,0,0,1-3.37-.837,6.059,6.059,0,0,1-2.3-2.31,7.3,7.3,0,0,1,0-6.788,6.066,6.066,0,0,1,2.3-2.31,7.16,7.16,0,0,1,6.717,0,6.071,6.071,0,0,1,2.3,2.31,7.346,7.346,0,0,1,.012,6.788,5.979,5.979,0,0,1-2.286,2.31,6.663,6.663,0,0,1-3.37.837m0-2.121a4.132,4.132,0,0,0,2.168-.566,3.957,3.957,0,0,0,1.473-1.556,4.767,4.767,0,0,0,.531-2.286,4.838,4.838,0,0,0-.531-2.3,3.936,3.936,0,0,0-1.473-1.567,4.441,4.441,0,0,0-4.337,0,4.018,4.018,0,0,0-1.485,1.567,4.75,4.75,0,0,0-.542,2.3,4.68,4.68,0,0,0,.542,2.286,4.04,4.04,0,0,0,1.485,1.556,4.13,4.13,0,0,0,2.168.566" transform="translate(-832.342 -25.777)" fill="#fff5c0"/>
    <path id="Caminho_760" data-name="Caminho 760" d="M1107.984,19.717a3.108,3.108,0,0,1-1.839-.566,3.751,3.751,0,0,1-1.249-1.544,5.352,5.352,0,0,1-.448-2.251V2.488a1.179,1.179,0,1,1,2.357,0V15.356a2.819,2.819,0,0,0,.33,1.438.971.971,0,0,0,.849.566h.589a.98.98,0,0,1,.766.33,1.227,1.227,0,0,1,.295.848,1.011,1.011,0,0,1-.448.848,1.9,1.9,0,0,1-1.155.33Z" transform="translate(-905.702 -1.073)" fill="#fff5c0"/>
    <path id="Caminho_761" data-name="Caminho 761" d="M1187.272,19.717a1.208,1.208,0,0,1-1.226-1.226V2.535a1.176,1.176,0,0,1,.354-.884,1.3,1.3,0,0,1,1.756,0,1.2,1.2,0,0,1,.342.884V9.3h10.936V2.535a1.175,1.175,0,0,1,.354-.884,1.207,1.207,0,0,1,.872-.342,1.158,1.158,0,0,1,.872.342,1.22,1.22,0,0,1,.33.884V18.491a1.23,1.23,0,0,1-.33.872,1.137,1.137,0,0,1-.872.354,1.208,1.208,0,0,1-1.226-1.226V11.467H1188.5v7.024a1.208,1.208,0,0,1-.342.872,1.175,1.175,0,0,1-.884.354" transform="translate(-972.615 -1.073)" fill="#fff5c0"/>
    <path id="Caminho_762" data-name="Caminho 762" d="M1303.056,44.861a6.016,6.016,0,0,1-2.911-.7,5.013,5.013,0,0,1-2.027-2.039,6.742,6.742,0,0,1-.742-3.3v-5.8a1.2,1.2,0,1,1,2.4,0v5.8a4.325,4.325,0,0,0,.495,2.18,3.079,3.079,0,0,0,1.343,1.273,4.3,4.3,0,0,0,1.909.412,3.926,3.926,0,0,0,1.8-.4,3.328,3.328,0,0,0,1.261-1.084,2.637,2.637,0,0,0,.471-1.532h1.485a4.969,4.969,0,0,1-.719,2.64,5.181,5.181,0,0,1-1.957,1.862,5.724,5.724,0,0,1-2.816.684m5.209-.118a1.169,1.169,0,0,1-1.2-1.2V33.029a1.156,1.156,0,0,1,.342-.872,1.2,1.2,0,0,1,2.062.872V43.541a1.189,1.189,0,0,1-.33.86,1.157,1.157,0,0,1-.872.342" transform="translate(-1063.911 -26.1)" fill="#fff5c0"/>
    <path id="Caminho_763" data-name="Caminho 763" d="M1394.625,19.811a6.379,6.379,0,0,1-3.3-.86,6.3,6.3,0,0,1-2.31-2.345,6.8,6.8,0,0,1-.872-3.347V2.511a1.157,1.157,0,0,1,.342-.872,1.3,1.3,0,0,1,1.733,0,1.181,1.181,0,0,1,.33.872V8.875a6.065,6.065,0,0,1,1.992-1.568,5.962,5.962,0,0,1,5.645.283,6.121,6.121,0,0,1,2.157,2.333,6.951,6.951,0,0,1,.789,3.335,6.555,6.555,0,0,1-.86,3.347,6.343,6.343,0,0,1-5.645,3.205m0-2.121a4.019,4.019,0,0,0,2.145-.577,4.168,4.168,0,0,0,1.5-1.591,4.638,4.638,0,0,0,.554-2.263,4.555,4.555,0,0,0-.554-2.263,4.218,4.218,0,0,0-1.5-1.568,4.253,4.253,0,0,0-4.278,0A4.1,4.1,0,0,0,1391,11a4.629,4.629,0,0,0-.542,2.263,4.714,4.714,0,0,0,.542,2.263,4.033,4.033,0,0,0,3.629,2.169" transform="translate(-1138.344 -1.073)" fill="#fff5c0"/>
    <path id="Caminho_764" data-name="Caminho 764" d="M329.459,140.636a.594.594,0,0,1-.446-.183.625.625,0,0,1-.177-.452v-8.276a.615.615,0,0,1,.183-.452.6.6,0,0,1,.44-.183.626.626,0,0,1,.636.636v7.64h4.425a.636.636,0,1,1,0,1.271Z" transform="translate(-269.661 -107.499)" fill="#fff5c0"/>
    <path id="Caminho_765" data-name="Caminho 765" d="M373.35,153.5a3.677,3.677,0,0,1-1.8-.434,3.172,3.172,0,0,1-1.234-1.2,3.412,3.412,0,0,1-.446-1.754,3.6,3.6,0,0,1,.422-1.766,3.084,3.084,0,0,1,1.168-1.2,3.341,3.341,0,0,1,1.711-.434,3.061,3.061,0,0,1,1.638.422,2.75,2.75,0,0,1,1.045,1.161A3.847,3.847,0,0,1,376.21,150a.511.511,0,0,1-.159.385.558.558,0,0,1-.4.153h-4.926v-.978h4.889l-.5.342a2.621,2.621,0,0,0-.244-1.094,1.782,1.782,0,0,0-1.7-1.045,2.227,2.227,0,0,0-1.192.306,1.969,1.969,0,0,0-.752.837,2.736,2.736,0,0,0-.257,1.2,2.339,2.339,0,0,0,.306,1.2,2.229,2.229,0,0,0,.844.831,2.455,2.455,0,0,0,1.235.306,2.319,2.319,0,0,0,.776-.141,2.414,2.414,0,0,0,.642-.324.693.693,0,0,1,.4-.141.534.534,0,0,1,.373.128.579.579,0,0,1,.22.4.433.433,0,0,1-.2.379,3.377,3.377,0,0,1-1.033.538,3.691,3.691,0,0,1-1.18.208" transform="translate(-303.308 -120.313)" fill="#fff5c0"/>
    <path id="Caminho_766" data-name="Caminho 766" d="M413.821,153.5a2.975,2.975,0,0,1-2.726-1.632,3.7,3.7,0,0,1-.4-1.754,3.516,3.516,0,0,1,.434-1.766,3.147,3.147,0,0,1,1.192-1.2,3.713,3.713,0,0,1,3.484,0,3.148,3.148,0,0,1,1.192,1.2,3.516,3.516,0,0,1,.434,1.766h-.721a3.954,3.954,0,0,1-.373,1.754,2.978,2.978,0,0,1-1.021,1.2,2.617,2.617,0,0,1-1.491.434m.22,2.726a3.906,3.906,0,0,1-1.626-.342,3.419,3.419,0,0,1-1.284-1,.52.52,0,0,1-.116-.428.543.543,0,0,1,.238-.355.586.586,0,0,1,.458-.1.622.622,0,0,1,.385.245,2.253,2.253,0,0,0,.831.648,2.675,2.675,0,0,0,1.137.232,2.155,2.155,0,0,0,1.082-.281,2.023,2.023,0,0,0,.788-.831,2.829,2.829,0,0,0,.293-1.345V150.93l.4-1.076.795.257v2.64a3.618,3.618,0,0,1-.428,1.754,3.265,3.265,0,0,1-1.192,1.253,3.334,3.334,0,0,1-1.767.464m.025-3.826a2.143,2.143,0,0,0,1.125-.293,2.053,2.053,0,0,0,.764-.807,2.472,2.472,0,0,0,.275-1.186,2.509,2.509,0,0,0-.275-1.192,2.042,2.042,0,0,0-.764-.813,2.3,2.3,0,0,0-2.249,0,2.083,2.083,0,0,0-.77.813,2.463,2.463,0,0,0-.281,1.192,2.427,2.427,0,0,0,.281,1.186,2.1,2.1,0,0,0,.77.807,2.143,2.143,0,0,0,1.125.293" transform="translate(-336.787 -120.312)" fill="#fff5c0"/>
    <path id="Caminho_767" data-name="Caminho 767" d="M459.672,153.5a2.943,2.943,0,0,1-1.6-.446,3.169,3.169,0,0,1-1.118-1.21,3.6,3.6,0,0,1-.41-1.73,3.4,3.4,0,0,1,.446-1.736,3.3,3.3,0,0,1,1.21-1.216,3.37,3.37,0,0,1,4.633,1.216,3.4,3.4,0,0,1,.446,1.736H462.8a3.6,3.6,0,0,1-.409,1.73,3.174,3.174,0,0,1-1.119,1.21,2.944,2.944,0,0,1-1.6.446m.245-1.1a2.087,2.087,0,0,0,1.112-.3,2.132,2.132,0,0,0,.77-.819,2.414,2.414,0,0,0,.281-1.168,2.44,2.44,0,0,0-.281-1.18,2.135,2.135,0,0,0-.77-.819,2.2,2.2,0,0,0-2.219,0,2.164,2.164,0,0,0-.782.819,2.4,2.4,0,0,0-.287,1.18,2.372,2.372,0,0,0,.287,1.168,2.16,2.16,0,0,0,.782.819,2.1,2.1,0,0,0,1.106.3m2.738,1.064a.606.606,0,0,1-.623-.623v-1.87l.232-1.3,1.015.44v2.726a.606.606,0,0,1-.624.623" transform="translate(-374.387 -120.312)" fill="#fff5c0"/>
    <path id="Caminho_768" data-name="Caminho 768" d="M504.773,140.636a1.611,1.611,0,0,1-.953-.293,1.944,1.944,0,0,1-.648-.8,2.771,2.771,0,0,1-.232-1.167V131.7a.611.611,0,1,1,1.222,0v6.674a1.461,1.461,0,0,0,.171.746.5.5,0,0,0,.44.293h.306a.508.508,0,0,1,.4.171.636.636,0,0,1,.153.44.525.525,0,0,1-.232.44.983.983,0,0,1-.6.171Z" transform="translate(-412.434 -107.499)" fill="#fff5c0"/>
    <path id="Caminho_769" data-name="Caminho 769" d="M530.373,140.2a4.609,4.609,0,0,1-3.355-1.412,4.824,4.824,0,0,1-1-1.559,5.106,5.106,0,0,1-.361-1.931,5.029,5.029,0,0,1,.361-1.913,4.845,4.845,0,0,1,1-1.552,4.7,4.7,0,0,1,1.5-1.045,4.539,4.539,0,0,1,1.858-.379,4.793,4.793,0,0,1,1.62.244,4.667,4.667,0,0,1,1.363.807.682.682,0,0,1,.153.153.468.468,0,0,1,.073.159.855.855,0,0,1,.018.189.5.5,0,0,1-.165.385.635.635,0,0,1-.85.018,3.634,3.634,0,0,0-.935-.6,3.278,3.278,0,0,0-1.277-.208,3.2,3.2,0,0,0-1.357.293,3.58,3.58,0,0,0-1.119.807,3.728,3.728,0,0,0-.752,1.192,4.069,4.069,0,0,0,0,2.909,3.728,3.728,0,0,0,.752,1.192,3.5,3.5,0,0,0,1.119.8,3.353,3.353,0,0,0,2.537.073,4.534,4.534,0,0,0,1.069-.593.643.643,0,0,1,.434-.141.549.549,0,0,1,.361.171.585.585,0,0,1,.147.422.608.608,0,0,1-.049.238.669.669,0,0,1-.146.214,4.918,4.918,0,0,1-1.412.795,4.671,4.671,0,0,1-1.583.269" transform="translate(-431.062 -106.942)" fill="#fff5c0"/>
    <path id="Caminho_770" data-name="Caminho 770" d="M578.957,153.5a3.455,3.455,0,0,1-1.748-.434,3.143,3.143,0,0,1-1.192-1.2,3.786,3.786,0,0,1,0-3.521,3.145,3.145,0,0,1,1.192-1.2,3.713,3.713,0,0,1,3.484,0,3.149,3.149,0,0,1,1.192,1.2,3.811,3.811,0,0,1,.006,3.521,3.1,3.1,0,0,1-1.186,1.2,3.456,3.456,0,0,1-1.748.434m0-1.1a2.143,2.143,0,0,0,1.124-.293,2.052,2.052,0,0,0,.764-.807,2.474,2.474,0,0,0,.275-1.186,2.511,2.511,0,0,0-.275-1.192,2.042,2.042,0,0,0-.764-.813,2.3,2.3,0,0,0-2.249,0,2.084,2.084,0,0,0-.77.813,2.463,2.463,0,0,0-.281,1.192,2.428,2.428,0,0,0,.281,1.186,2.1,2.1,0,0,0,.77.807,2.141,2.141,0,0,0,1.125.293" transform="translate(-472.006 -120.312)" fill="#fff5c0"/>
    <path id="Caminho_771" data-name="Caminho 771" d="M623.96,153.406a.606.606,0,0,1-.624-.623v-5.452a.6.6,0,0,1,.177-.452.621.621,0,0,1,1.07.452v5.452a.617.617,0,0,1-.171.446.6.6,0,0,1-.452.177m5.024,0a.606.606,0,0,1-.624-.623v-3.007a2.235,2.235,0,0,0-.257-1.137,1.617,1.617,0,0,0-.69-.654,2.228,2.228,0,0,0-1-.214,2.048,2.048,0,0,0-.929.208,1.737,1.737,0,0,0-.66.556,1.359,1.359,0,0,0-.244.8h-.77a2.567,2.567,0,0,1,.373-1.375,2.693,2.693,0,0,1,1.021-.96,2.983,2.983,0,0,1,1.455-.354,3.121,3.121,0,0,1,1.51.36,2.6,2.6,0,0,1,1.051,1.057,3.5,3.5,0,0,1,.385,1.712v3.007a.606.606,0,0,1-.623.623" transform="translate(-511.166 -120.257)" fill="#fff5c0"/>
    <path id="Caminho_772" data-name="Caminho 772" d="M665.484,138.588a.588.588,0,0,1-.416-.146.478.478,0,0,1-.159-.367.506.506,0,0,1,.159-.391.588.588,0,0,1,.416-.147h2.824a.588.588,0,0,1,.416.147.507.507,0,0,1,.159.391.479.479,0,0,1-.159.367.589.589,0,0,1-.416.146Zm2.714,5.391a2,2,0,0,1-1.1-.312,2.185,2.185,0,0,1-.77-.85,2.571,2.571,0,0,1-.281-1.21v-5.831a.611.611,0,1,1,1.222,0v5.831a1.254,1.254,0,0,0,.269.819.821.821,0,0,0,.66.33h.416a.482.482,0,0,1,.373.171.637.637,0,0,1,.153.44.55.55,0,0,1-.2.44.774.774,0,0,1-.519.171Z" transform="translate(-545.258 -110.842)" fill="#fff5c0"/>
    <path id="Caminho_773" data-name="Caminho 773" d="M697.515,153.338a.625.625,0,0,1-.452-.153.608.608,0,0,1-.159-.458v-5.464a.554.554,0,0,1,.611-.611.54.54,0,0,1,.611.611v5.464a.626.626,0,0,1-.153.452.608.608,0,0,1-.458.159m-.012-4.181a2.439,2.439,0,0,1,.361-1.314,2.643,2.643,0,0,1,.972-.923,2.707,2.707,0,0,1,1.345-.342,2.007,2.007,0,0,1,1.094.238.5.5,0,0,1,.275.568.47.47,0,0,1-.141.263.485.485,0,0,1-.238.116.718.718,0,0,1-.293-.012,3.433,3.433,0,0,0-1.406-.024,1.9,1.9,0,0,0-.984.5,1.27,1.27,0,0,0-.361.929Z" transform="translate(-571.495 -120.201)" fill="#fff5c0"/>
    <path id="Caminho_774" data-name="Caminho 774" d="M728.673,153.5a3.455,3.455,0,0,1-1.748-.434,3.144,3.144,0,0,1-1.192-1.2,3.788,3.788,0,0,1,0-3.521,3.146,3.146,0,0,1,1.192-1.2,3.713,3.713,0,0,1,3.484,0,3.148,3.148,0,0,1,1.192,1.2,3.81,3.81,0,0,1,.006,3.521,3.1,3.1,0,0,1-1.186,1.2,3.455,3.455,0,0,1-1.748.434m0-1.1a2.143,2.143,0,0,0,1.124-.293,2.052,2.052,0,0,0,.764-.807,2.473,2.473,0,0,0,.275-1.186,2.51,2.51,0,0,0-.275-1.192,2.042,2.042,0,0,0-.764-.813,2.3,2.3,0,0,0-2.249,0,2.083,2.083,0,0,0-.77.813,2.462,2.462,0,0,0-.281,1.192,2.426,2.426,0,0,0,.281,1.186,2.1,2.1,0,0,0,.77.807,2.142,2.142,0,0,0,1.125.293" transform="translate(-594.78 -120.312)" fill="#fff5c0"/>
    <path id="Caminho_775" data-name="Caminho 775" d="M773.529,140.636a1.611,1.611,0,0,1-.953-.293,1.945,1.945,0,0,1-.648-.8,2.77,2.77,0,0,1-.232-1.167V131.7a.611.611,0,1,1,1.222,0v6.674a1.462,1.462,0,0,0,.171.746.5.5,0,0,0,.44.293h.305a.508.508,0,0,1,.4.171.637.637,0,0,1,.153.44.525.525,0,0,1-.232.44.984.984,0,0,1-.6.171Z" transform="translate(-632.827 -107.499)" fill="#fff5c0"/>
    <path id="Caminho_776" data-name="Caminho 776" d="M222.2,139.283a3.481,3.481,0,0,1-1.8-.47,3.438,3.438,0,0,1-1.26-1.279,3.71,3.71,0,0,1-.476-1.826v-5.864a.631.631,0,0,1,.186-.476.653.653,0,0,1,1.125.476v3.472a3.306,3.306,0,0,1,1.087-.855,3.253,3.253,0,0,1,3.08.154,3.342,3.342,0,0,1,1.177,1.273,3.793,3.793,0,0,1,.431,1.819,3.576,3.576,0,0,1-.469,1.826,3.462,3.462,0,0,1-3.08,1.749m0-1.157a2.194,2.194,0,0,0,1.17-.315,2.275,2.275,0,0,0,.817-.868,2.532,2.532,0,0,0,.3-1.235,2.486,2.486,0,0,0-.3-1.234,2.305,2.305,0,0,0-.817-.855,2.319,2.319,0,0,0-2.334,0,2.239,2.239,0,0,0-.816.855,2.526,2.526,0,0,0-.3,1.234,2.572,2.572,0,0,0,.3,1.235,2.2,2.2,0,0,0,1.98,1.183" transform="translate(-179.316 -105.94)" fill="#fff5c0"/>
    <path id="Caminho_777" data-name="Caminho 777" d="M264.806,152.637a.586.586,0,0,1-.457.019.664.664,0,0,1-.341-.328l-2.945-5.594a.523.523,0,0,1-.032-.469.611.611,0,0,1,.341-.328.6.6,0,0,1,.463-.019.611.611,0,0,1,.334.328l2.816,5.594a.768.768,0,0,1,.1.469.411.411,0,0,1-.277.328m-1.518,3.369a.808.808,0,0,1-.309-.077.539.539,0,0,1-.309-.81l3.922-8.86a.558.558,0,0,1,.81-.309.536.536,0,0,1,.322.81l-3.935,8.848a.527.527,0,0,1-.5.4" transform="translate(-214.024 -119.629)" fill="#fff5c0"/>
  </g>
</svg>
